PathFileType	4	(X/Y/Z)	/Users/itak/Documents/Research/Walk-IL/dataset/trc/00445_00167.trc
DataRate	CameraRate	NumFrames	NumMarkers	Units	OrigDataRate	OrigDataStartFrame	OrigNumFrames
100.000000	100.000000	4	54	mm	100.000000	125	501
Frame#	Time	RPSI			L3			STRN			T10			C7			CLAV			RBAK			LBAK			LSHO			LUPA			LAEL			LAOL			LWTS			LWPS			LFRA			LIFD			LHPS			LHTS			RSHO			RUPA			RAEL			RAOL			RWTS			RWPS			RFRA			RIFD			RHTS			RHPS			RBHD			LFHD			RFHD			LBHD			LHIP			RHIP			RASI			LASI			LKNE			LTHI			LANK			LTIP			LTOE			LMT1			LMT5			LHEE			RKNE			RTHI			RANK			RTIP			RTOE			RMT1			RMT5			RHEE			LPSI			*53			
		X1	Y1	Z1	X2	Y2	Z2	X3	Y3	Z3	X4	Y4	Z4	X5	Y5	Z5	X6	Y6	Z6	X7	Y7	Z7	X8	Y8	Z8	X9	Y9	Z9	X10	Y10	Z10	X11	Y11	Z11	X12	Y12	Z12	X13	Y13	Z13	X14	Y14	Z14	X15	Y15	Z15	X16	Y16	Z16	X17	Y17	Z17	X18	Y18	Z18	X19	Y19	Z19	X20	Y20	Z20	X21	Y21	Z21	X22	Y22	Z22	X23	Y23	Z23	X24	Y24	Z24	X25	Y25	Z25	X26	Y26	Z26	X27	Y27	Z27	X28	Y28	Z28	X29	Y29	Z29	X30	Y30	Z30	X31	Y31	Z31	X32	Y32	Z32	X33	Y33	Z33	X34	Y34	Z34	X35	Y35	Z35	X36	Y36	Z36	X37	Y37	Z37	X38	Y38	Z38	X39	Y39	Z39	X40	Y40	Z40	X41	Y41	Z41	X42	Y42	Z42	X43	Y43	Z43	X44	Y44	Z44	X45	Y45	Z45	X46	Y46	Z46	X47	Y47	Z47	X48	Y48	Z48	X49	Y49	Z49	X50	Y50	Z50	X51	Y51	Z51	X52	Y52	Z52	X53	Y53	Z53	X54	Y54	Z54	

126	1.25	-1677.650756835938	970.290283203125	-697.9010009765625	-1631.750854492188	1061.433471679688	-730.6865844726562	-1419.090942382812	1258.201538085938	-574.971923828125	-1647.894775390625	1184.662841796875	-745.8136596679688	-1608.847290039062	1450.454711914062	-691.2001953125	-1448.612426757812	1371.83349609375	-600.1189575195312	-1713.128784179688	1329.589721679688	-650.9767456054688	-1574.223999023438	1405.73388671875	-793.6450805664062	-1441.60498046875	1429.820190429688	-797.74609375	-1378.740112304688	1310.873291015625	-876.5997314453125	-1329.417846679688	1091.7275390625	-867.5545654296875	-1431.426635742188	1075.322875976562	-880.124267578125	-1310.5947265625	894.1945190429688	-764.7982177734375	-1295.706787109375	874.4966430664062	-836.2203369140625	-1306.0458984375	1005.240295410156	-852.0413208007812	-1298.81787109375	725.3189697265625	-757.662841796875	-1292.931762695312	793.6168212890625	-825.8944091796875	-1293.654907226562	804.7240600585938	-756.2442626953125	-1643.989501953125	1416.847045898438	-518.4300537109375	-1697.097045898438	1352.698608398438	-465.716796875	-1699.007202148438	1062.918212890625	-411.3499755859375	-1733.26904296875	1045.393188476562	-467.0617065429688	-1570.879150390625	872.018310546875	-424.4366455078125	-1651.424438476562	847.6121215820312	-396.6785888671875	-1693.800170898438	1004.342529296875	-402.6782531738281	-1554.787719726562	715.4069213867188	-412.2538146972656	-1551.71728515625	774.8985595703125	-408.2001647949219	-1626.322387695312	763.0797119140625	-393.7542724609375	-1595.079833984375	1647.896118164062	-575.572021484375	-1397.77294921875	1672.049682617188	-639.7505493164062	-1467.69873046875	1674.562866210938	-527.9511108398438	-1515.760986328125	1646.688598632812	-734.6951904296875	-1402.745727539062	865.0428466796875	-800.414794921875	-1684.116821289062	863.3212890625	-522.787353515625	-1565.767700195312	904.064697265625	-493.750244140625	-1382.612060546875	903.4595336914062	-675.8967895507812	-1423.580200195312	442.0502624511719	-753.0189819335938	-1387.504150390625	595.2696533203125	-756.4612426757812	-1519.389404296875	34.78893280029297	-829.7046508789062	-1439.908325195312	288.2052307128906	-778.0359497070312	-1393.621826171875	52.6144905090332	-629.9256591796875	-1468.776245117188	51.97277069091797	-653.5397338867188	-1399.512084960938	52.69762420654297	-742.0485229492188	-1594.338745117188	32.59682083129883	-824.5073852539062	-1659.829345703125	468.8706970214844	-538.2176513671875	-1660.182373046875	729.4591064453125	-487.5344848632812	-1708.53662109375	44.06865310668945	-584.96923828125	-1676.617309570312	324.9102478027344	-536.5618286132812	-1508.670532226562	49.54746627807617	-492.9545593261719	-1537.52392578125	54.40877532958984	-560.422607421875	-1615.889770507812	49.20681762695312	-485.2574768066406	-1733.620849609375	35.25062942504883	-662.1002197265625	-1582.323974609375	967.5053100585938	-801.8563842773438	nan	nan	nan	
127	1.26	-1676.61669921875	970.3182983398438	-698.1707763671875	-1630.682495117188	1061.395141601562	-730.80810546875	-1418.150390625	1258.107666015625	-574.8072509765625	-1646.983642578125	1184.82763671875	-745.9061279296875	-1607.8310546875	1450.478393554688	-691.0732421875	-1447.61865234375	1371.753051757812	-599.9210815429688	-1712.130004882812	1329.516357421875	-650.910400390625	-1573.225463867188	1405.772338867188	-793.5272216796875	-1440.538208007812	1429.767944335938	-797.6121826171875	-1377.773681640625	1310.790771484375	-876.4696655273438	-1328.774658203125	1091.63916015625	-867.3968505859375	-1430.803100585938	1075.322509765625	-880.0396728515625	-1310.2529296875	893.9321899414062	-764.7593383789062	-1295.334106445312	874.2877197265625	-836.1964111328125	-1305.396728515625	1004.994995117188	-851.9820556640625	-1298.753295898438	725.1281127929688	-757.701171875	-1292.735473632812	793.3260498046875	-825.9210815429688	-1293.465087890625	804.46630859375	-756.2516479492188	-1643.056030273438	1416.67041015625	-518.345458984375	-1696.107299804688	1352.486572265625	-465.6602478027344	-1697.777465820312	1062.736938476562	-411.2388000488281	-1732.118408203125	1045.198974609375	-466.8819580078125	-1569.673828125	871.8949584960938	-424.4801025390625	-1650.061889648438	847.43505859375	-396.5477294921875	-1692.501586914062	1004.126342773438	-402.5653686523438	-1553.393676757812	715.3074340820312	-412.2660217285156	-1550.371826171875	774.8165283203125	-408.1580200195312	-1624.890380859375	762.9290771484375	-393.6147155761719	-1594.073486328125	1647.848999023438	-575.429443359375	-1396.72412109375	1671.969482421875	-639.6362915039062	-1466.71240234375	1674.540771484375	-527.8259887695312	-1514.76806640625	1646.651123046875	-734.5225219726562	-1401.407348632812	864.8335571289062	-800.092041015625	-1683.549438476562	863.4013061523438	-523.1140747070312	-1565.0927734375	903.9637451171875	-493.7519836425781	-1381.757568359375	903.3267822265625	-675.5901489257812	-1423.107055664062	441.86279296875	-752.6847534179688	-1386.774169921875	595.128173828125	-756.006103515625	-1519.351440429688	34.73205184936523	-829.7379150390625	-1439.71533203125	288.0052490234375	-777.8202514648438	-1393.85400390625	53.09127426147461	-629.8698120117188	-1468.99755859375	52.15961074829102	-653.5240478515625	-1399.703369140625	52.95337295532227	-741.9847412109375	-1594.505737304688	32.79762268066406	-824.6759643554688	-1659.477661132812	468.9154663085938	-538.3176879882812	-1659.649047851562	729.437255859375	-487.6751098632812	-1708.517211914062	44.06277084350586	-584.9442749023438	-1676.363159179688	324.9507446289062	-536.5601806640625	-1508.690063476562	49.54880523681641	-492.9667358398438	-1537.53173828125	54.40972137451172	-560.4248046875	-1615.89501953125	49.20059204101562	-485.2600708007812	-1733.615112304688	35.23061752319336	-662.0936279296875	-1581.053466796875	967.4901123046875	-801.9591064453125	nan	nan	nan	
128	1.27	-1675.518432617188	970.341064453125	-698.3944702148438	-1629.545776367188	1061.335083007812	-730.9065551757812	-1417.142822265625	1258.011596679688	-574.6272583007812	-1645.938110351562	1184.927001953125	-745.9584350585938	-1606.747680664062	1450.495239257812	-690.9507446289062	-1446.563720703125	1371.658935546875	-599.7079467773438	-1711.072265625	1329.449951171875	-650.86083984375	-1572.122802734375	1405.788330078125	-793.4013671875	-1439.4140625	1429.733520507812	-797.47705078125	-1376.733764648438	1310.718017578125	-876.3345947265625	-1328.064819335938	1091.544555664062	-867.2855834960938	-1430.09521484375	1075.328369140625	-879.946044921875	-1309.848754882812	893.673583984375	-764.7455444335938	-1294.9306640625	874.093017578125	-836.179931640625	-1304.702026367188	1004.727233886719	-851.9427490234375	-1298.615966796875	724.9345092773438	-757.7372436523438	-1292.509399414062	793.0538330078125	-825.9453735351562	-1293.236938476562	804.1975708007812	-756.2503051757812	-1642.058227539062	1416.487060546875	-518.2583618164062	-1695.051391601562	1352.265991210938	-465.5964050292969	-1696.475952148438	1062.553100585938	-411.144775390625	-1730.857666015625	1044.99755859375	-466.7173767089844	-1568.458984375	871.7228393554688	-424.5029907226562	-1648.69775390625	847.2312622070312	-396.4056701660156	-1691.13330078125	1003.897827148438	-402.4643249511719	-1552.063110351562	715.1459350585938	-412.212890625	-1549.051879882812	774.6693725585938	-408.086669921875	-1623.476928710938	762.7361450195312	-393.44140625	-1592.979614257812	1647.783813476562	-575.2698364257812	-1395.6103515625	1671.878540039062	-639.505126953125	-1465.653686523438	1674.51416015625	-527.69140625	-1513.708129882812	1646.6123046875	-734.3536376953125	-1400.085693359375	864.6721801757812	-799.8143310546875	-1682.869018554688	863.4497680664062	-523.3731079101562	-1564.296508789062	903.8565063476562	-493.7345275878906	-1380.760498046875	903.2228393554688	-675.281494140625	-1422.6435546875	441.704833984375	-752.4309692382812	-1386.045288085938	594.9534301757812	-755.6152954101562	-1519.310302734375	34.67922973632812	-829.76220703125	-1439.54150390625	287.7855529785156	-777.6263427734375	-1394.07958984375	53.51304244995117	-629.810546875	-1469.22314453125	52.33859634399414	-653.489501953125	-1399.885498046875	53.19083404541016	-741.9223022460938	-1594.65625	32.99068069458008	-824.8150024414062	-1659.096313476562	468.9688415527344	-538.4401245117188	-1658.997314453125	729.3964233398438	-487.7832336425781	-1708.51708984375	44.07232666015625	-584.9253540039062	-1676.072875976562	324.9958190917969	-536.5687255859375	-1508.711181640625	49.55062103271484	-492.972412109375	-1537.537475585938	54.40909957885742	-560.4276733398438	-1615.897094726562	49.18991088867188	-485.2602844238281	-1733.612182617188	35.21468734741211	-662.0889892578125	-1579.725708007812	967.4752197265625	-802.0272216796875	nan	nan	nan	
129	1.28	-1674.357543945312	970.3667602539062	-698.5740356445312	-1628.334594726562	1061.252563476562	-730.974365234375	-1416.06298828125	1257.910400390625	-574.4404296875	-1644.746826171875	1184.9443359375	-745.9581909179688	-1605.593383789062	1450.50390625	-690.8211669921875	-1445.443481445312	1371.550537109375	-599.4882202148438	-1709.949096679688	1329.39453125	-650.8218383789062	-1570.9169921875	1405.781860351562	-793.2594604492188	-1438.220947265625	1429.712524414062	-797.3236083984375	-1375.631225585938	1310.655639648438	-876.197021484375	-1327.287719726562	1091.435546875	-867.2171630859375	-1429.303466796875	1075.3359375	-879.8450317382812	-1309.377197265625	893.4271850585938	-764.7526245117188	-1294.494506835938	873.9120483398438	-836.1752319335938	-1303.985107421875	1004.454772949219	-851.9188232421875	-1298.425415039062	724.7293090820312	-757.768798828125	-1292.252563476562	792.8017578125	-825.9599609375	-1292.963745117188	803.9176025390625	-756.2400512695312	-1640.985473632812	1416.303955078125	-518.1620483398438	-1693.928955078125	1352.039794921875	-465.5260925292969	-1695.114135742188	1062.368041992188	-411.0705871582031	-1729.492309570312	1044.786254882812	-466.5810546875	-1567.2275390625	871.5092163085938	-424.5015869140625	-1647.338500976562	847.0054931640625	-396.2646789550781	-1689.714111328125	1003.66748046875	-402.377685546875	-1550.789428710938	714.9263305664062	-412.0945129394531	-1547.75	774.4592895507812	-407.9999694824219	-1622.089965820312	762.5116577148438	-393.2573852539062	-1591.800170898438	1647.70361328125	-575.0973510742188	-1394.433837890625	1671.784301757812	-639.351806640625	-1464.51513671875	1674.485595703125	-527.5376586914062	-1512.568481445312	1646.568115234375	-734.186279296875	-1398.7880859375	864.5592651367188	-799.596435546875	-1682.064086914062	863.4656372070312	-523.5623168945312	-1563.388061523438	903.745361328125	-493.7087707519531	-1379.646728515625	903.1342163085938	-674.9927368164062	-1422.17529296875	441.5712280273438	-752.2499389648438	-1385.328247070312	594.7382202148438	-755.301513671875	-1519.267700195312	34.62892913818359	-829.7806396484375	-1439.361572265625	287.552490234375	-777.4552001953125	-1394.299926757812	53.88925170898438	-629.7487182617188	-1469.446166992188	52.50951385498047	-653.4435424804688	-1400.06103515625	53.41172027587891	-741.8639526367188	-1594.782470703125	33.15949249267578	-824.9240112304688	-1658.682250976562	469.0288391113281	-538.5774536132812	-1658.2490234375	729.3478393554688	-487.8755493164062	-1708.536254882812	44.09257125854492	-584.9130859375	-1675.746459960938	325.0403137207031	-536.5886840820312	-1508.735595703125	49.55331039428711	-492.9716491699219	-1537.543701171875	54.40822219848633	-560.4307861328125	-1615.896728515625	49.17793273925781	-485.2594604492188	-1733.614135742188	35.2020149230957	-662.0855712890625	-1578.330932617188	967.4501342773438	-802.0523681640625	nan	nan	nan	
